STARTFONT   2.1
FONT -infocom-Zork-medium-r-normal--20-200-72-72-c-120-misc-fontspecific
SIZE  20  96   96
FONTBOUNDINGBOX 12  20  0  -1
STARTPROPERTIES  4
FONT_ASCENT 19
FONT_DESCENT 1
CAP_HEIGHT 19
DEFAULT_CHAR 8224
ENDPROPERTIES
CHARS  96
STARTCHAR 0
ENCODING 32
SWIDTH    12000    0
DWIDTH    12    0
BBX  12  20  0   -1
BITMAP
0000
0000
0000
0000
0000
0000
0000
0000
0000
0000
0000
0000
0000
0000
0000
0000
0000
0000
0000
0000
ENDCHAR
STARTCHAR 1
ENCODING 33
SWIDTH    12000    0
DWIDTH    12    0
BBX  12  20  0   -1
BITMAP
0000
0000
0000
0000
0000
0000
0000
1000
3000
7000
FFF0
7000
3000
1000
0000
0000
0000
0000
0000
0000
ENDCHAR
STARTCHAR 2
ENCODING 34
SWIDTH    12000    0
DWIDTH    12    0
BBX  12  20  0   -1
BITMAP
0000
0000
0000
0000
0000
0000
0000
0080
00C0
00E0
FFF0
00E0
00C0
0080
0000
0000
0000
0000
0000
0000
ENDCHAR
STARTCHAR 3
ENCODING 35
SWIDTH    12000    0
DWIDTH    12    0
BBX  12  20  0   -1
BITMAP
0010
0020
0020
0040
0040
0080
0080
0100
0200
0200
0400
0400
0800
1000
1000
2000
2000
4000
4000
8000
ENDCHAR
STARTCHAR 4
ENCODING 36
SWIDTH    12000    0
DWIDTH    12    0
BBX  12  20  0   -1
BITMAP
8000
4000
4000
2000
2000
1000
1000
0800
0400
0400
0200
0200
0100
0080
0080
0040
0040
0020
0020
0010
ENDCHAR
STARTCHAR 5
ENCODING 37
SWIDTH    12000    0
DWIDTH    12    0
BBX  12  20  0   -1
BITMAP
0000
0000
0000
0000
0000
0000
0000
0000
0000
0000
0000
0000
0000
0000
0000
0000
0000
0000
0000
0000
ENDCHAR
STARTCHAR 6
ENCODING 38
SWIDTH    12000    0
DWIDTH    12    0
BBX  12  20  0   -1
BITMAP
0000
0000
0000
0000
0000
0000
0000
0000
0000
0000
FFF0
0000
0000
0000
0000
0000
0000
0000
0000
0000
ENDCHAR
STARTCHAR 7
ENCODING 39
SWIDTH    12000    0
DWIDTH    12    0
BBX  12  20  0   -1
BITMAP
0000
0000
0000
0000
0000
0000
0000
0000
0000
FFF0
0000
0000
0000
0000
0000
0000
0000
0000
0000
0000
ENDCHAR
STARTCHAR 8
ENCODING 40
SWIDTH    12000    0
DWIDTH    12    0
BBX  12  20  0   -1
BITMAP
0200
0200
0200
0200
0200
0200
0200
0200
0200
0200
0200
0200
0200
0200
0200
0200
0200
0200
0200
0200
ENDCHAR
STARTCHAR 9
ENCODING 41
SWIDTH    12000    0
DWIDTH    12    0
BBX  12  20  0   -1
BITMAP
0400
0400
0400
0400
0400
0400
0400
0400
0400
0400
0400
0400
0400
0400
0400
0400
0400
0400
0400
0400
ENDCHAR
STARTCHAR 10
ENCODING 42
SWIDTH    12000    0
DWIDTH    12    0
BBX  12  20  0   -1
BITMAP
0200
0200
0200
0200
0200
0200
0200
0200
0200
FFF0
0000
0000
0000
0000
0000
0000
0000
0000
0000
0000
ENDCHAR
STARTCHAR 11
ENCODING 43
SWIDTH    12000    0
DWIDTH    12    0
BBX  12  20  0   -1
BITMAP
0000
0000
0000
0000
0000
0000
0000
0000
0000
0000
FFF0
0200
0200
0200
0200
0200
0200
0200
0200
0200
ENDCHAR
STARTCHAR 12
ENCODING 44
SWIDTH    12000    0
DWIDTH    12    0
BBX  12  20  0   -1
BITMAP
0200
0200
0200
0200
0200
0200
0200
0200
0200
0200
03F0
0200
0200
0200
0200
0200
0200
0200
0200
0200
ENDCHAR
STARTCHAR 13
ENCODING 45
SWIDTH    12000    0
DWIDTH    12    0
BBX  12  20  0   -1
BITMAP
0400
0400
0400
0400
0400
0400
0400
0400
0400
0400
FC00
0400
0400
0400
0400
0400
0400
0400
0400
0400
ENDCHAR
STARTCHAR 14
ENCODING 46
SWIDTH    12000    0
DWIDTH    12    0
BBX  12  20  0   -1
BITMAP
0400
0400
0400
0400
0400
0400
0400
0400
0400
0400
07F0
0000
0000
0000
0000
0000
0000
0000
0000
0000
ENDCHAR
STARTCHAR 15
ENCODING 47
SWIDTH    12000    0
DWIDTH    12    0
BBX  12  20  0   -1
BITMAP
0000
0000
0000
0000
0000
0000
0000
0000
0000
07F0
0400
0400
0400
0400
0400
0400
0400
0400
0400
0400
ENDCHAR
STARTCHAR 16
ENCODING 48
SWIDTH    12000    0
DWIDTH    12    0
BBX  12  20  0   -1
BITMAP
0000
0000
0000
0000
0000
0000
0000
0000
0000
FE00
0200
0200
0200
0200
0200
0200
0200
0200
0200
0200
ENDCHAR
STARTCHAR 17
ENCODING 49
SWIDTH    12000    0
DWIDTH    12    0
BBX  12  20  0   -1
BITMAP
0200
0200
0200
0200
0200
0200
0200
0200
0200
0200
FE00
0000
0000
0000
0000
0000
0000
0000
0000
0000
ENDCHAR
STARTCHAR 18
ENCODING 50
SWIDTH    12000    0
DWIDTH    12    0
BBX  12  20  0   -1
BITMAP
0400
0400
0400
0400
0400
0400
0400
0400
0400
0400
07F0
0800
0800
1000
1000
2000
2000
4000
4000
8000
ENDCHAR
STARTCHAR 19
ENCODING 51
SWIDTH    12000    0
DWIDTH    12    0
BBX  12  20  0   -1
BITMAP
8000
4000
4000
2000
2000
1000
1000
0800
0800
07F0
0400
0400
0400
0400
0400
0400
0400
0400
0400
0400
ENDCHAR
STARTCHAR 20
ENCODING 52
SWIDTH    12000    0
DWIDTH    12    0
BBX  12  20  0   -1
BITMAP
0010
0020
0020
0040
0040
0080
0080
0100
0100
FE00
0200
0200
0200
0200
0200
0200
0200
0200
0200
0200
ENDCHAR
STARTCHAR 21
ENCODING 53
SWIDTH    12000    0
DWIDTH    12    0
BBX  12  20  0   -1
BITMAP
0200
0200
0200
0200
0200
0200
0200
0200
0200
0200
FE00
0100
0100
0080
0080
0040
0040
0020
0020
0010
ENDCHAR
STARTCHAR 22
ENCODING 54
SWIDTH    12000    0
DWIDTH    12    0
BBX  12  20  0   -1
BITMAP
FFF0
FFF0
FFF0
FFF0
FFF0
FFF0
FFF0
FFF0
FFF0
FFF0
FFF0
FFF0
FFF0
FFF0
FFF0
FFF0
FFF0
FFF0
FFF0
FFF0
ENDCHAR
STARTCHAR 23
ENCODING 55
SWIDTH    12000    0
DWIDTH    12    0
BBX  12  20  0   -1
BITMAP
FFF0
FFF0
FFF0
FFF0
FFF0
FFF0
FFF0
FFF0
FFF0
FFF0
FFF0
0000
0000
0000
0000
0000
0000
0000
0000
0000
ENDCHAR
STARTCHAR 24
ENCODING 56
SWIDTH    12000    0
DWIDTH    12    0
BBX  12  20  0   -1
BITMAP
0000
0000
0000
0000
0000
0000
0000
0000
0000
FFF0
FFF0
FFF0
FFF0
FFF0
FFF0
FFF0
FFF0
FFF0
FFF0
FFF0
ENDCHAR
STARTCHAR 25
ENCODING 57
SWIDTH    12000    0
DWIDTH    12    0
BBX  12  20  0   -1
BITMAP
FC00
FC00
FC00
FC00
FC00
FC00
FC00
FC00
FC00
FC00
FC00
FC00
FC00
FC00
FC00
FC00
FC00
FC00
FC00
FC00
ENDCHAR
STARTCHAR 26
ENCODING 58
SWIDTH    12000    0
DWIDTH    12    0
BBX  12  20  0   -1
BITMAP
07F0
07F0
07F0
07F0
07F0
07F0
07F0
07F0
07F0
07F0
07F0
07F0
07F0
07F0
07F0
07F0
07F0
07F0
07F0
07F0
ENDCHAR
STARTCHAR 27
ENCODING 59
SWIDTH    12000    0
DWIDTH    12    0
BBX  12  20  0   -1
BITMAP
0200
0200
0200
0200
0200
0200
0200
0200
0200
FFF0
FFF0
FFF0
FFF0
FFF0
FFF0
FFF0
FFF0
FFF0
FFF0
FFF0
ENDCHAR
STARTCHAR 28
ENCODING 60
SWIDTH    12000    0
DWIDTH    12    0
BBX  12  20  0   -1
BITMAP
FFF0
FFF0
FFF0
FFF0
FFF0
FFF0
FFF0
FFF0
FFF0
FFF0
FFF0
0200
0200
0200
0200
0200
0200
0200
0200
0200
ENDCHAR
STARTCHAR 29
ENCODING 61
SWIDTH    12000    0
DWIDTH    12    0
BBX  12  20  0   -1
BITMAP
FE00
FE00
FE00
FE00
FE00
FE00
FE00
FE00
FE00
FE00
FFF0
FE00
FE00
FE00
FE00
FE00
FE00
FE00
FE00
FE00
ENDCHAR
STARTCHAR 30
ENCODING 62
SWIDTH    12000    0
DWIDTH    12    0
BBX  12  20  0   -1
BITMAP
07F0
07F0
07F0
07F0
07F0
07F0
07F0
07F0
07F0
07F0
FFF0
07F0
07F0
07F0
07F0
07F0
07F0
07F0
07F0
07F0
ENDCHAR
STARTCHAR 31
ENCODING 63
SWIDTH    12000    0
DWIDTH    12    0
BBX  12  20  0   -1
BITMAP
07F0
07F0
07F0
07F0
07F0
07F0
07F0
07F0
07F0
07F0
07F0
0000
0000
0000
0000
0000
0000
0000
0000
0000
ENDCHAR
STARTCHAR 32
ENCODING 64
SWIDTH    12000    0
DWIDTH    12    0
BBX  12  20  0   -1
BITMAP
0000
0000
0000
0000
0000
0000
0000
0000
0000
07F0
07F0
07F0
07F0
07F0
07F0
07F0
07F0
07F0
07F0
07F0
ENDCHAR
STARTCHAR 33
ENCODING 65
SWIDTH    12000    0
DWIDTH    12    0
BBX  12  20  0   -1
BITMAP
0000
0000
0000
0000
0000
0000
0000
0000
0000
FE00
FE00
FE00
FE00
FE00
FE00
FE00
FE00
FE00
FE00
FE00
ENDCHAR
STARTCHAR 34
ENCODING 66
SWIDTH    12000    0
DWIDTH    12    0
BBX  12  20  0   -1
BITMAP
FE00
FE00
FE00
FE00
FE00
FE00
FE00
FE00
FE00
FE00
FE00
0000
0000
0000
0000
0000
0000
0000
0000
0000
ENDCHAR
STARTCHAR 35
ENCODING 67
SWIDTH    12000    0
DWIDTH    12    0
BBX  12  20  0   -1
BITMAP
07F0
07F0
07F0
07F0
07F0
07F0
07F0
07F0
07F0
07F0
07F0
0800
0800
1000
1000
2000
2000
4000
4000
8000
ENDCHAR
STARTCHAR 36
ENCODING 68
SWIDTH    12000    0
DWIDTH    12    0
BBX  12  20  0   -1
BITMAP
8000
4000
4000
2000
2000
1000
1000
0800
0800
07F0
07F0
07F0
07F0
07F0
07F0
07F0
07F0
07F0
07F0
07F0
ENDCHAR
STARTCHAR 37
ENCODING 69
SWIDTH    12000    0
DWIDTH    12    0
BBX  12  20  0   -1
BITMAP
0010
0020
0020
0040
0040
0080
0080
0100
0100
FE00
FE00
FE00
FE00
FE00
FE00
FE00
FE00
FE00
FE00
FE00
ENDCHAR
STARTCHAR 38
ENCODING 70
SWIDTH    12000    0
DWIDTH    12    0
BBX  12  20  0   -1
BITMAP
FE00
FE00
FE00
FE00
FE00
FE00
FE00
FE00
FE00
FE00
FE00
0100
0100
0080
0080
0040
0040
0020
0020
0010
ENDCHAR
STARTCHAR 39
ENCODING 71
SWIDTH    12000    0
DWIDTH    12    0
BBX  12  20  0   -1
BITMAP
0030
0030
0000
0000
0000
0000
0000
0000
0000
0000
0000
0000
0000
0000
0000
0000
0000
0000
0000
0000
ENDCHAR
STARTCHAR 40
ENCODING 72
SWIDTH    12000    0
DWIDTH    12    0
BBX  12  20  0   -1
BITMAP
0000
0000
0000
0000
0000
0000
0000
0000
0000
0000
0000
0000
0000
0000
0000
0000
0000
0000
0030
0030
ENDCHAR
STARTCHAR 41
ENCODING 73
SWIDTH    12000    0
DWIDTH    12    0
BBX  12  20  0   -1
BITMAP
0000
0000
0000
0000
0000
0000
0000
0000
0000
0000
0000
0000
0000
0000
0000
0000
0000
0000
C000
C000
ENDCHAR
STARTCHAR 42
ENCODING 74
SWIDTH    12000    0
DWIDTH    12    0
BBX  12  20  0   -1
BITMAP
C000
C000
0000
0000
0000
0000
0000
0000
0000
0000
0000
0000
0000
0000
0000
0000
0000
0000
0000
0000
ENDCHAR
STARTCHAR 43
ENCODING 75
SWIDTH    12000    0
DWIDTH    12    0
BBX  12  20  0   -1
BITMAP
FFF0
0000
0000
0000
0000
0000
0000
0000
0000
0000
0000
0000
0000
0000
0000
0000
0000
0000
0000
0000
ENDCHAR
STARTCHAR 44
ENCODING 76
SWIDTH    12000    0
DWIDTH    12    0
BBX  12  20  0   -1
BITMAP
0000
0000
0000
0000
0000
0000
0000
0000
0000
0000
0000
0000
0000
0000
0000
0000
0000
0000
0000
FFF0
ENDCHAR
STARTCHAR 45
ENCODING 77
SWIDTH    12000    0
DWIDTH    12    0
BBX  12  20  0   -1
BITMAP
8000
8000
8000
8000
8000
8000
8000
8000
8000
8000
8000
8000
8000
8000
8000
8000
8000
8000
8000
8000
ENDCHAR
STARTCHAR 46
ENCODING 78
SWIDTH    12000    0
DWIDTH    12    0
BBX  12  20  0   -1
BITMAP
0010
0010
0010
0010
0010
0010
0010
0010
0010
0010
0010
0010
0010
0010
0010
0010
0010
0010
0010
0010
ENDCHAR
STARTCHAR 47
ENCODING 79
SWIDTH    12000    0
DWIDTH    12    0
BBX  12  20  0   -1
BITMAP
0000
0000
FFF0
0000
0000
0000
0000
0000
0000
0000
0000
0000
0000
0000
0000
0000
0000
FFF0
0000
0000
ENDCHAR
STARTCHAR 48
ENCODING 80
SWIDTH    12000    0
DWIDTH    12    0
BBX  12  20  0   -1
BITMAP
0000
0000
FFF0
8000
8000
8000
8000
8000
8000
8000
8000
8000
8000
8000
8000
8000
8000
FFF0
0000
0000
ENDCHAR
STARTCHAR 49
ENCODING 81
SWIDTH    12000    0
DWIDTH    12    0
BBX  12  20  0   -1
BITMAP
0000
0000
FFF0
E000
E000
E000
E000
E000
E000
E000
E000
E000
E000
E000
E000
E000
E000
FFF0
0000
0000
ENDCHAR
STARTCHAR 50
ENCODING 82
SWIDTH    12000    0
DWIDTH    12    0
BBX  12  20  0   -1
BITMAP
0000
0000
FFF0
F000
F000
F000
F000
F000
F000
F000
F000
F000
F000
F000
F000
F000
F000
FFF0
0000
0000
ENDCHAR
STARTCHAR 51
ENCODING 83
SWIDTH    12000    0
DWIDTH    12    0
BBX  12  20  0   -1
BITMAP
0000
0000
FFF0
FC00
FC00
FC00
FC00
FC00
FC00
FC00
FC00
FC00
FC00
FC00
FC00
FC00
FC00
FFF0
0000
0000
ENDCHAR
STARTCHAR 52
ENCODING 84
SWIDTH    12000    0
DWIDTH    12    0
BBX  12  20  0   -1
BITMAP
0000
0000
FFF0
FE00
FE00
FE00
FE00
FE00
FE00
FE00
FE00
FE00
FE00
FE00
FE00
FE00
FE00
FFF0
0000
0000
ENDCHAR
STARTCHAR 53
ENCODING 85
SWIDTH    12000    0
DWIDTH    12    0
BBX  12  20  0   -1
BITMAP
0000
0000
FFF0
FF80
FF80
FF80
FF80
FF80
FF80
FF80
FF80
FF80
FF80
FF80
FF80
FF80
FF80
FFF0
0000
0000
ENDCHAR
STARTCHAR 54
ENCODING 86
SWIDTH    12000    0
DWIDTH    12    0
BBX  12  20  0   -1
BITMAP
0000
0000
FFF0
FFC0
FFC0
FFC0
FFC0
FFC0
FFC0
FFC0
FFC0
FFC0
FFC0
FFC0
FFC0
FFC0
FFC0
FFF0
0000
0000
ENDCHAR
STARTCHAR 55
ENCODING 87
SWIDTH    12000    0
DWIDTH    12    0
BBX  12  20  0   -1
BITMAP
0000
0000
FFF0
FFF0
FFF0
FFF0
FFF0
FFF0
FFF0
FFF0
FFF0
FFF0
FFF0
FFF0
FFF0
FFF0
FFF0
FFF0
0000
0000
ENDCHAR
STARTCHAR 56
ENCODING 88
SWIDTH    12000    0
DWIDTH    12    0
BBX  12  20  0   -1
BITMAP
0000
0010
0010
0010
0010
0010
0010
0010
0010
0010
0010
0010
0010
0010
0010
0010
0010
0010
0010
0000
ENDCHAR
STARTCHAR 57
ENCODING 89
SWIDTH    12000    0
DWIDTH    12    0
BBX  12  20  0   -1
BITMAP
0000
8000
8000
8000
8000
8000
8000
8000
8000
8000
8000
8000
8000
8000
8000
8000
8000
8000
8000
0000
ENDCHAR
STARTCHAR 58
ENCODING 90
SWIDTH    12000    0
DWIDTH    12    0
BBX  12  20  0   -1
BITMAP
8010
4020
4020
2040
2040
1080
1080
0900
0600
0600
0600
0600
0900
1080
1080
2040
2040
4020
4020
8010
ENDCHAR
STARTCHAR 59
ENCODING 91
SWIDTH    12000    0
DWIDTH    12    0
BBX  12  20  0   -1
BITMAP
0200
0200
0200
0200
0200
0200
0200
0200
0200
0200
FFF0
0200
0200
0200
0200
0200
0200
0200
0200
0200
ENDCHAR
STARTCHAR 60
ENCODING 92
SWIDTH    12000    0
DWIDTH    12    0
BBX  12  20  0   -1
BITMAP
0200
0700
0F80
1FC0
0200
0200
0200
0200
0200
0200
0200
0200
0200
0200
0200
0200
0200
0200
0200
0200
ENDCHAR
STARTCHAR 61
ENCODING 93
SWIDTH    12000    0
DWIDTH    12    0
BBX  12  20  0   -1
BITMAP
0200
0200
0200
0200
0200
0200
0200
0200
0200
0200
0200
0200
0200
0200
0200
0200
1FC0
0F80
0700
0200
ENDCHAR
STARTCHAR 62
ENCODING 94
SWIDTH    12000    0
DWIDTH    12    0
BBX  12  20  0   -1
BITMAP
0200
0700
0F80
1FC0
0200
0200
0200
0200
0200
0200
0200
0200
0200
0200
0200
0200
1FC0
0F80
0700
0200
ENDCHAR
STARTCHAR 63
ENCODING 95
SWIDTH    12000    0
DWIDTH    12    0
BBX  12  20  0   -1
BITMAP
FFF0
8010
8010
8010
8010
8010
8010
8010
8010
8010
8010
8010
8010
8010
8010
8010
8010
8010
8010
FFF0
ENDCHAR
STARTCHAR 64
ENCODING 96
SWIDTH    12000    0
DWIDTH    12    0
BBX  12  20  0   -1
BITMAP
0000
1F00
3FC0
70C0
E060
C060
0060
00C0
01C0
0380
0600
0C00
0C00
0C00
0000
0000
0C00
0C00
0000
0000
ENDCHAR
STARTCHAR 65
ENCODING 97
SWIDTH    12000    0
DWIDTH    12    0
BBX  12  20  0   -1
BITMAP
0000
E040
9040
9080
8880
8500
8500
8200
C000
A000
9000
9000
8800
8400
8200
8000
8000
8000
8000
8000
ENDCHAR
STARTCHAR 66
ENCODING 98
SWIDTH    12000    0
DWIDTH    12    0
BBX  12  20  0   -1
BITMAP
0000
7C00
4200
4200
4100
4100
4100
4080
4080
7F80
4080
4080
4080
4100
4100
4100
4200
4200
4400
7800
ENDCHAR
STARTCHAR 67
ENCODING 99
SWIDTH    12000    0
DWIDTH    12    0
BBX  12  20  0   -1
BITMAP
0000
0300
0280
0280
0240
0220
0220
0210
0200
0200
0200
0200
0200
8200
4200
2200
2200
1200
0A00
0600
ENDCHAR
STARTCHAR 68
ENCODING 100
SWIDTH    12000    0
DWIDTH    12    0
BBX  12  20  0   -1
BITMAP
0000
8010
C030
C030
A050
A050
9090
8910
8910
8610
8610
8610
8910
8910
9090
A050
A050
C030
C030
8010
ENDCHAR
STARTCHAR 69
ENCODING 101
SWIDTH    12000    0
DWIDTH    12    0
BBX  12  20  0   -1
BITMAP
0000
8020
C060
A0A0
9120
8A20
8420
8020
8020
8020
8020
8020
8020
8020
8020
8020
8020
8020
8020
8020
ENDCHAR
STARTCHAR 70
ENCODING 102
SWIDTH    12000    0
DWIDTH    12    0
BBX  12  20  0   -1
BITMAP
0000
8210
8220
8420
8440
8840
8880
9080
9100
A100
A200
C400
C400
8800
8800
9000
9000
A000
A000
C000
ENDCHAR
STARTCHAR 71
ENCODING 103
SWIDTH    12000    0
DWIDTH    12    0
BBX  12  20  0   -1
BITMAP
0000
8020
4040
4040
2080
2080
1100
1100
3F80
4A40
8420
4A40
3F80
1100
1100
2080
2080
4040
4040
8020
ENDCHAR
STARTCHAR 72
ENCODING 104
SWIDTH    12000    0
DWIDTH    12    0
BBX  12  20  0   -1
BITMAP
0000
C080
A080
A080
9080
8880
8880
8480
8280
8280
C180
A080
A080
9080
8880
8880
8480
8280
8280
8180
ENDCHAR
STARTCHAR 73
ENCODING 105
SWIDTH    12000    0
DWIDTH    12    0
BBX  12  20  0   -1
BITMAP
0000
0400
0400
0400
0400
0400
0400
0400
0400
0400
0400
0400
0400
0400
0400
0400
0400
0400
0400
0400
ENDCHAR
STARTCHAR 74
ENCODING 106
SWIDTH    12000    0
DWIDTH    12    0
BBX  12  20  0   -1
BITMAP
0000
0400
0E00
0E00
1500
1500
2480
2480
4440
4440
8420
4440
4440
2480
2480
1500
1500
0E00
0E00
0400
ENDCHAR
STARTCHAR 75
ENCODING 107
SWIDTH    12000    0
DWIDTH    12    0
BBX  12  20  0   -1
BITMAP
0000
4000
6000
6000
5000
5000
4800
4800
4400
4400
4200
4200
4100
4100
4080
4080
4040
4040
4040
4040
ENDCHAR
STARTCHAR 76
ENCODING 108
SWIDTH    12000    0
DWIDTH    12    0
BBX  12  20  0   -1
BITMAP
0000
0000
6000
5000
5000
4800
4400
4200
4200
4100
4080
4000
4000
4000
4000
4000
4000
4000
4000
4000
ENDCHAR
STARTCHAR 77
ENCODING 109
SWIDTH    12000    0
DWIDTH    12    0
BBX  12  20  0   -1
BITMAP
0000
C060
A0A0
A0A0
9120
8A20
8A20
8420
8420
8A20
9120
9120
A0A0
C060
C060
8020
8020
8020
8020
8020
ENDCHAR
STARTCHAR 78
ENCODING 110
SWIDTH    12000    0
DWIDTH    12    0
BBX  12  20  0   -1
BITMAP
0000
8400
4400
4400
2400
2400
1400
1400
0C00
0C00
0400
0600
0600
0500
0500
0480
0480
0440
0440
0420
ENDCHAR
STARTCHAR 79
ENCODING 111
SWIDTH    12000    0
DWIDTH    12    0
BBX  12  20  0   -1
BITMAP
0000
C060
A0A0
9120
8A20
8420
8020
8020
C040
A080
9100
8A00
8400
8000
8000
8000
8000
8000
8000
8000
ENDCHAR
STARTCHAR 80
ENCODING 112
SWIDTH    12000    0
DWIDTH    12    0
BBX  12  20  0   -1
BITMAP
0000
4000
4000
4000
4000
4000
4000
4000
4000
40C0
4140
4140
4240
4240
4440
4840
4840
5040
5040
6040
ENDCHAR
STARTCHAR 81
ENCODING 113
SWIDTH    12000    0
DWIDTH    12    0
BBX  12  20  0   -1
BITMAP
0000
8E20
5540
5540
2480
0400
0400
0400
0400
0400
0400
0400
0400
0400
0400
0400
0400
0400
0400
0400
ENDCHAR
STARTCHAR 82
ENCODING 114
SWIDTH    12000    0
DWIDTH    12    0
BBX  12  20  0   -1
BITMAP
0000
7800
4600
4100
4080
4080
4080
4080
4100
4600
7E00
4200
4200
4100
4100
4100
4100
4080
4080
4080
ENDCHAR
STARTCHAR 83
ENCODING 115
SWIDTH    12000    0
DWIDTH    12    0
BBX  12  20  0   -1
BITMAP
0000
8000
8000
8000
8000
8060
80A0
80A0
8120
8220
8420
8420
8820
9020
A020
A020
C020
0020
0020
0020
ENDCHAR
STARTCHAR 84
ENCODING 116
SWIDTH    12000    0
DWIDTH    12    0
BBX  12  20  0   -1
BITMAP
0000
0E00
1500
2480
2480
4440
8420
0400
0400
0400
0400
0400
0400
0400
0400
0400
0400
0400
0400
0400
ENDCHAR
STARTCHAR 85
ENCODING 117
SWIDTH    12000    0
DWIDTH    12    0
BBX  12  20  0   -1
BITMAP
0000
6000
5000
4800
4400
4400
4200
4100
4080
4040
4040
4040
4040
4040
4040
4040
4040
4040
4040
4040
ENDCHAR
STARTCHAR 86
ENCODING 118
SWIDTH    12000    0
DWIDTH    12    0
BBX  12  20  0   -1
BITMAP
0000
1F00
2080
2080
2080
1100
1100
0A00
0A00
0400
0400
0A00
0A00
1100
1100
2080
2080
4040
4040
8020
ENDCHAR
STARTCHAR 87
ENCODING 119
SWIDTH    12000    0
DWIDTH    12    0
BBX  12  20  0   -1
BITMAP
0000
7800
4600
4100
4100
4080
4080
4100
4100
4600
7800
4000
4000
4000
4000
4000
4000
4000
4000
4000
ENDCHAR
STARTCHAR 88
ENCODING 120
SWIDTH    12000    0
DWIDTH    12    0
BBX  12  20  0   -1
BITMAP
0000
0400
0400
0400
0400
0400
0400
0400
0400
0400
0E00
1500
2480
4440
8420
8420
8420
8420
8420
8420
ENDCHAR
STARTCHAR 89
ENCODING 121
SWIDTH    12000    0
DWIDTH    12    0
BBX  12  20  0   -1
BITMAP
0000
FC00
8600
C600
C500
A500
A480
9440
9440
8C20
8620
8620
8520
8520
84A0
84A0
8460
8420
8420
8420
ENDCHAR
STARTCHAR 90
ENCODING 122
SWIDTH    12000    0
DWIDTH    12    0
BBX  12  20  0   -1
BITMAP
0000
1FE0
1000
2000
2000
4000
4000
8000
8000
4000
4000
2000
2000
2000
1000
1000
0800
0800
0400
07E0
ENDCHAR
STARTCHAR 91
ENCODING 123
SWIDTH    12000    0
DWIDTH    12    0
BBX  12  20  0   -1
BITMAP
FBF0
F1F0
E0F0
C070
FBF0
FBF0
FBF0
FBF0
FBF0
FBF0
FBF0
FBF0
FBF0
FBF0
FBF0
FBF0
FBF0
FBF0
FBF0
FBF0
ENDCHAR
STARTCHAR 92
ENCODING 124
SWIDTH    12000    0
DWIDTH    12    0
BBX  12  20  0   -1
BITMAP
FBF0
FBF0
FBF0
FBF0
FBF0
FBF0
FBF0
FBF0
FBF0
FBF0
FBF0
FBF0
FBF0
FBF0
FBF0
FBF0
C070
E0F0
F1F0
FBF0
ENDCHAR
STARTCHAR 93
ENCODING 125
SWIDTH    12000    0
DWIDTH    12    0
BBX  12  20  0   -1
BITMAP
FBF0
F1F0
E0F0
C070
FBF0
FBF0
FBF0
FBF0
FBF0
FBF0
FBF0
FBF0
FBF0
FBF0
FBF0
FBF0
C070
E0F0
F1F0
FBF0
ENDCHAR
STARTCHAR 94
ENCODING 126
SWIDTH    12000    0
DWIDTH    12    0
BBX  12  20  0   -1
BITMAP
FFF0
E070
C030
8F10
1F90
3F90
FF90
FF10
FE30
FC70
F1F0
F3F0
F3F0
F3F0
FFF0
FFF0
F3F0
F3F0
FFF0
FFF0
ENDCHAR
STARTCHAR 95
ENCODING 127
SWIDTH    12000    0
DWIDTH    12    0
BBX  12  20  0   -1
BITMAP
0000
0000
0000
0000
0000
0000
0000
0000
0000
0000
0000
0000
0000
0000
0000
0000
0000
0000
0000
0000
ENDCHAR
ENDFONT
